<?xml version="1.0" encoding="utf-8"?>
<!-- Generator: Adobe Illustrator 22.0.1, SVG Export Plug-In . SVG Version: 6.00 Build 0)  -->
<svg version="1.1" id="Layer_1" xmlns="http://www.w3.org/2000/svg" xmlns:xlink="http://www.w3.org/1999/xlink" x="0px" y="0px"
	 viewBox="0 0 255 513" style="enable-background:new 0 0 255 513;" xml:space="preserve">
<style type="text/css">
	.st0{clip-path:url(#SVGID_2_);}
	.st1{fill:#F2F2F2;}
	.st2{fill:#ACACAC;}
	.st3{fill:#FAFAFA;}
	.st4{fill:#BABABA;}
	.st5{fill:#D8D8D8;}
	.st6{fill:#EB5055;}
	.st7{fill:#161616;}
	.st8{fill:#C7C7C7;}
</style>
<image style="overflow:visible;enable-background:new    ;" width="255" height="513" xlink:href="131E68E6.png" >
</image>
<g>
	<g>
		<defs>
			<rect id="SVGID_1_" width="229.4" height="486.4"/>
		</defs>
		<clipPath id="SVGID_2_">
			<use xlink:href="#SVGID_1_"  style="overflow:visible;"/>
		</clipPath>
		<g class="st0">
			<path class="st1" d="M228.9,28.7C228.9,12.8,216,0,200.2,0H28.1C12.3,0-0.5,12.8-0.5,28.7v429.1c0,15.8,12.8,28.7,28.7,28.7
				h172.1c15.8,0,28.7-12.8,28.7-28.7V28.7H228.9z"/>
			<path class="st2" d="M134.4,40.9c0-1.5-1.2-2.7-2.7-2.7H98.8c-1.5,0-2.7,1.2-2.7,2.7s1.2,2.7,2.7,2.7h32.9
				C133.2,43.5,134.4,42.3,134.4,40.9z"/>
			<path class="st3" d="M114.7,477.6c12.3,0,22.2-10,22.2-22.2c0-12.3-10-22.2-22.2-22.2s-22.2,10-22.2,22.2
				S102.4,477.6,114.7,477.6z"/>
			<path class="st4" d="M119.2,446.5L119.2,446.5h0.2h0.1h0.1h0.1h0.1h0.1h0.1h0.1h0.1h0.1h0.1h0.1h0.1h0.1h0.1h0.1h0.1h0.1l0.1,0.1
				l0.1,0.1l0.1,0.1l0.1,0.1l0.1,0.1l0.1,0.1l0.1,0.1l0.1,0.1l0.1,0.1l0.1,0.1l0.1,0.1l0.1,0.1l0.1,0.1l0.1,0.1l0.1,0.1l0.1,0.1
				l0.1,0.1l0.1,0.1l0.1,0.1l0.1,0.1l0.1,0.1l0.1,0.1l0.1,0.1l0.1,0.1l0.1,0.1v0.1v0.1v0.1v0.1v0.1v0.1v0.1v0.1v0.1v0.1v0.1v0.1v0.1
				v0.1v0.1v0.1v0.1v0.1v0.1v8.7v0.1v0.1v0.1v0.1v0.1v0.1v0.1v0.1v0.1v0.1v0.1v0.1v0.1v0.1v0.1v0.1v0.1v0.1v0.1l-0.1,0.1l-0.1,0.1
				l-0.1,0.1l-0.1,0.1l-0.1,0.1l-0.1,0.1l-0.1,0.1l-0.1,0.1l-0.1,0.1l-0.1,0.1l-0.1,0.1l-0.1,0.1l-0.1,0.1l-0.1,0.1l-0.1,0.1
				l-0.1,0.1l-0.1,0.1l-0.1,0.1l-0.1,0.1l-0.1,0.1l-0.1,0.1l-0.1,0.1l-0.1,0.1l-0.1,0.1l-0.1,0.1H121h-0.1h-0.1h-0.1h-0.1h-0.1h-0.1
				h-0.1h-0.1h-0.1H120h-0.1h-0.1h-0.1h-0.1h-0.1h-0.1h-0.1h-0.1h-0.1h-8.7h-0.1h-0.1h-0.1H110h-0.1h-0.1h-0.1h-0.1h-0.1h-0.1h-0.1
				h-0.1h-0.1H109h-0.1h-0.1h-0.1h-0.1h-0.1h-0.1l-0.1-0.1l-0.1-0.1l-0.1-0.1l-0.1-0.1l-0.1-0.1l-0.1-0.1l-0.1-0.1l-0.1-0.1
				l-0.1-0.1l-0.1-0.1l-0.1-0.1l-0.1-0.1l-0.1-0.1l-0.1-0.1l-0.1-0.1l-0.1-0.1l-0.1-0.1l-0.1-0.1l-0.1-0.1l-0.1-0.1l-0.1-0.1
				l-0.1-0.1l-0.1-0.1l-0.1-0.1l-0.1-0.1v-0.1v-0.1v-0.1v-0.1V461v-0.1v-0.1v-0.1v-0.1v-0.1v-0.1v-0.1v-0.1v-0.1V460v-0.1v-0.1v-0.1
				v-0.1v-8.7v-0.1v-0.1v-0.1v-0.1v-0.1v-0.1v-0.1v-0.1V450v-0.1v-0.1v-0.1v-0.1v-0.1v-0.1v-0.1v-0.1v-0.1V449l0.1-0.1l0.1-0.1
				l0.1-0.1l0.1-0.1l0.1-0.1l0.1-0.1l0.1-0.1l0.1-0.1l0.1-0.1l0.1-0.1l0.1-0.1l0.1-0.1l0.1-0.1l0.1-0.1l0.1-0.1l0.1-0.1l0.1-0.1
				l0.1-0.1l0.1-0.1l0.1-0.1l0.1-0.1l0.1-0.1l0.1-0.1l0.1-0.1l0.1-0.1h0.1h0.1h0.1h0.1h0.1h0.1h0.1h0.1h0.1h0.1h0.1h0.1h0.1h0.1h0.1
				h0.1h0.1h0.1h0.1h0.1H119.2L119.2,446.5z M110.4,448.5L110.4,448.5L110.4,448.5h-0.2h-0.1H110h-0.1h-0.1h-0.1h-0.1h-0.1h-0.1
				h-0.1h-0.1h-0.1H109h-0.1h-0.1h-0.1h-0.1h-0.1l0,0l0,0l0,0l0,0l0,0l0,0l0,0l0,0l0,0l0,0l0,0l0,0l0,0l0,0l0,0l0,0l0,0l0,0l0,0l0,0
				l0,0l0,0l0,0l0,0v0.1v0.1v0.1v0.1v0.1v0.1v0.1v0.1v0.1v0.1v0.1v0.1v0.1v0.1v0.1v0.1v0.1v0.1v0.1v0.1v8.7v0.1v0.1v0.1v0.1v0.1v0.1
				v0.1v0.1v0.1v0.1v0.1v0.1v0.1v0.1v0.1v0.1v0.1v0.1v0.1v0.1v0.1l0,0l0,0l0,0l0,0l0,0l0,0l0,0l0,0l0,0l0,0l0,0l0,0l0,0l0,0l0,0l0,0
				l0,0l0,0l0,0l0,0l0,0h0.1l0,0h0.1h0.1h0.1h0.1h0.1h0.1h0.1h0.1h0.1h0.1h0.1h0.1h0.1h0.1h0.1h0.1h0.1h0.1h0.1h0.1h8.7h0.1h0.1h0.1
				h0.1h0.1h0.1h0.1h0.1h0.1h0.1h0.1h0.1h0.1h0.1h0.1h0.1h0.1h0.1h0.1h0.1l0,0h0.1l0,0l0,0l0,0l0,0l0,0l0,0l0,0l0,0l0,0l0,0l0,0l0,0
				l0,0l0,0l0,0l0,0l0,0l0,0l0,0l0,0l0,0v-0.1v-0.1V461v-0.1v-0.1v-0.1v-0.1v-0.1v-0.1v-0.1v-0.1v-0.1V460v-0.1v-0.1v-0.1v-0.1v-0.1
				v-0.1v-0.1v-0.1v-8.7v-0.1v-0.1v-0.1v-0.1V450v-0.1v-0.1v-0.1v-0.1v-0.1v-0.1v-0.1v-0.1v-0.1V449v-0.1v-0.1v-0.1v-0.1v-0.1l0,0
				l0,0l0,0l0,0l0,0l0,0l0,0l0,0l0,0l0,0l0,0l0,0l0,0l0,0l0,0l0,0l0,0l0,0l0,0l0,0l0,0l0,0l0,0l0,0h-0.1h-0.1h-0.1H121h-0.1h-0.1
				h-0.1h-0.1h-0.1h-0.1h-0.1h-0.1h-0.1H120h-0.1h-0.1h-0.1h-0.1h-0.1h-0.1H110.4z"/>
			<path class="st5" d="M114.7,26.9c2.6,0,4.7-2.1,4.7-4.7s-2.1-4.7-4.7-4.7s-4.7,2.1-4.7,4.7S112.1,26.9,114.7,26.9z"/>
			<path class="st6" d="M114.7,24.3c1.2,0,2.1-0.9,2.1-2.1s-0.9-2.1-2.1-2.1s-2.1,0.9-2.1,2.1S113.6,24.3,114.7,24.3z"/>
			<path class="st7" d="M214.5,69.1H14.9v353.7h199.7L214.5,69.1L214.5,69.1z"/>
			<path class="st8" d="M215.8,66.1l1,0.7l0.7,1l0.2,1.2v353.7l-0.2,1.2l-0.7,1l-1,0.7l-1.2,0.2H14.9l-1.2-0.2l-1-0.7l-0.7-1
				l-0.2-1.2V69.1l0.2-1.2l0.7-1l1-0.7l1.2-0.2h199.7L215.8,66.1z M14.9,69.1v353.7h199.7V69.1H14.9z"/>
		</g>
	</g>
</g>
<image style="overflow:visible;enable-background:new    ;" width="201" height="354" xlink:href="131E68E7.png"  transform="matrix(1 0 0 1 15 69)">
</image>
</svg>
